HIERARCHY
ROOT joint_Root
{
	OFFSET 0.0 0.0 0.0
	CHANNELS 6 Xposition Yposition Zposition Zrotation Xrotation Yrotation 
	JOINT Hips
	{
		OFFSET -0.726466 93.3139 -2.00062
		CHANNELS 6 Xposition Yposition Zposition Zrotation Xrotation Yrotation 
		JOINT Spine
		{
			OFFSET 15.7357 0.0 0.0
			CHANNELS 6 Xposition Yposition Zposition Zrotation Xrotation Yrotation 
			JOINT Chest
			{
				OFFSET 8.98455 -0.406207 0.0
				CHANNELS 6 Xposition Yposition Zposition Zrotation Xrotation Yrotation 
				JOINT Neck
				{
					OFFSET 16.3773 0.0 0.0
					CHANNELS 6 Xposition Yposition Zposition Zrotation Xrotation Yrotation 
					JOINT Head
					{
						OFFSET 6.45672 0.0 0.0
						CHANNELS 6 Xposition Yposition Zposition Zrotation Xrotation Yrotation 
						End Site
						{
							OFFSET 0.0 0.0 0.0
						}
					}
				}
				JOINT Shoulder_L
				{
					OFFSET 12.9942 -0.242716 4.98039
					CHANNELS 6 Xposition Yposition Zposition Zrotation Xrotation Yrotation 
					JOINT UpperArm_L
					{
						OFFSET 5.34809 0.0 0.0
						CHANNELS 6 Xposition Yposition Zposition Zrotation Xrotation Yrotation 
						JOINT LowerArm_L
						{
							OFFSET 24.3286 1.87007e-05 0.0
							CHANNELS 6 Xposition Yposition Zposition Zrotation Xrotation Yrotation 
							JOINT Hand_L
							{
								OFFSET 22.2916 0.0 0.0
								CHANNELS 6 Xposition Yposition Zposition Zrotation Xrotation Yrotation 
								End Site
								{
									OFFSET 0.0 0.0 0.0
								}
							}
						}
					}
				}
				JOINT Shoulder_R
				{
					OFFSET 12.9945 -0.242716 -4.98039
					CHANNELS 6 Xposition Yposition Zposition Zrotation Xrotation Yrotation 
					JOINT UpperArm_R
					{
						OFFSET -5.34813 0.0 0.0
						CHANNELS 6 Xposition Yposition Zposition Zrotation Xrotation Yrotation 
						JOINT LowerArm_R
						{
							OFFSET -24.3289 0.000322201 0.0
							CHANNELS 6 Xposition Yposition Zposition Zrotation Xrotation Yrotation 
							JOINT Hand_R
							{
								OFFSET -22.2915 -0.000108084 0.0
								CHANNELS 6 Xposition Yposition Zposition Zrotation Xrotation Yrotation 
								End Site
								{
									OFFSET 0.0 0.0 0.0
								}
							}
						}
					}
				}
			}
		}
		JOINT UpperLeg_L
		{
			OFFSET -2.19248 -6.46944 0.0
			CHANNELS 6 Xposition Yposition Zposition Zrotation Xrotation Yrotation 
			JOINT LowerLeg_L
			{
				OFFSET 39.0811 0.0 -1.23785e-05
				CHANNELS 6 Xposition Yposition Zposition Zrotation Xrotation Yrotation 
				JOINT Foot_L
				{
					OFFSET 40.9854 0.0 -1.26872e-05
					CHANNELS 6 Xposition Yposition Zposition Zrotation Xrotation Yrotation 
					JOINT Toes_L
					{
						OFFSET 11.7543 0.0 0.0
						CHANNELS 6 Xposition Yposition Zposition Zrotation Xrotation Yrotation 
						End Site
						{
							OFFSET 0.0 0.0 0.0
						}
					}
				}
			}
		}
		JOINT UpperLeg_R
		{
			OFFSET -2.19251 6.46944 0.0
			CHANNELS 6 Xposition Yposition Zposition Zrotation Xrotation Yrotation 
			JOINT LowerLeg_R
			{
				OFFSET -39.0811 -0.00228153 -0.0401928
				CHANNELS 6 Xposition Yposition Zposition Zrotation Xrotation Yrotation 
				JOINT Foot_R
				{
					OFFSET -40.9854 0.0 0.0
					CHANNELS 6 Xposition Yposition Zposition Zrotation Xrotation Yrotation 
					JOINT Toes_R
					{
						OFFSET -11.7543 0.0 0.0
						CHANNELS 6 Xposition Yposition Zposition Zrotation Xrotation Yrotation 
						End Site
						{
							OFFSET 0.0 0.0 0.0
						}
					}
				}
			}
		}
	}
}
MOTION
Frames:	6
Frame Time:	0.0333333
0.000000 0.000000 0.000000 0.000000 0.000000 -0.000000 -0.758209 92.151900 0.685705 87.963800 -1.245580 4.245930 15.735700 0.000005 -0.000001 88.283700 85.121300 -88.038200 8.984550 -0.406207 -0.000000 1.987630 -0.304427 0.495949 16.377300 -0.000001 -0.000001 4.633900 -2.943680 1.156840 6.456720 -0.000001 -0.000000 1.720790 -2.303250 0.157508 12.994200 -0.242716 4.980390 -89.989200 -0.034834 -72.755100 5.348090 -0.000007 -0.000001 -67.606000 40.680900 -13.725800 24.328600 0.000019 0.000005 0.392862 0.903783 -23.492900 22.291600 -0.000001 0.000005 5.341250 5.490760 -6.165550 12.994500 -0.242716 -4.980390 87.565800 7.442840 -71.831500 -5.348130 -0.000001 -0.000004 -65.901900 37.198200 -15.976500 -24.328900 0.000322 -0.000009 2.679750 8.134640 -18.309300 -22.291500 -0.000108 -0.000004 6.792790 5.306710 -0.115778 -2.192480 -6.469440 -0.000000 -175.402000 -5.703280 -1.420920 39.081100 -0.000007 -0.000012 -0.118674 0.279376 23.015000 40.985400 -0.000006 -0.000013 -0.523033 2.334900 -67.527300 11.754300 -0.000000 0.000003 -0.000049 -0.000561 -16.599300 -2.192510 6.469440 -0.000001 179.574000 12.899800 -179.345000 -39.081100 -0.002282 -0.040193 -0.023318 0.073530 19.915300 -40.985400 0.000008 0.000006 3.810680 7.324170 -66.848900 -11.754300 -0.000006 -0.000006 -0.007737 -0.085872 -20.069600
0.000000 0.000000 0.000000 0.000000 0.000000 -0.000000 -0.757861 92.153800 0.668452 87.978900 -1.252850 4.287640 15.735700 0.000005 -0.000001 88.801000 85.118100 -88.598500 8.984550 -0.406207 -0.000000 1.996130 -0.214379 0.408389 16.377300 -0.000001 -0.000001 4.575730 -2.890920 1.086380 6.456720 -0.000001 -0.000000 1.832550 -2.338060 0.176027 12.994200 -0.242716 4.980390 -89.975900 -0.077847 -72.764900 5.348090 -0.000007 -0.000001 -67.651400 40.583200 -13.759900 24.328600 0.000019 0.000005 0.393703 0.905423 -23.499500 22.291600 -0.000001 0.000005 5.283200 5.490720 -6.164220 12.994500 -0.242716 -4.980390 87.561200 7.460130 -71.838600 -5.348130 -0.000001 -0.000004 -65.327300 36.893300 -16.235100 -24.328900 0.000322 -0.000009 3.305970 9.178500 -19.909800 -22.291500 -0.000108 -0.000004 5.471320 5.275100 0.766562 -2.192480 -6.469440 -0.000000 -175.400000 -5.790200 -1.376050 39.081100 -0.000007 -0.000012 -0.119590 0.281784 22.996700 40.985400 -0.000006 -0.000013 -0.507078 2.406700 -67.509500 11.754300 -0.000000 0.000003 -0.000056 -0.000625 -16.601800 -2.192510 6.469440 -0.000001 179.559000 12.869700 -179.321000 -39.081100 -0.002282 -0.040193 -0.022964 0.072498 19.929600 -40.985400 0.000008 0.000006 3.833380 7.290620 -66.849200 -11.754300 -0.000006 -0.000006 -0.007785 -0.086269 -20.085800
0.000000 0.000000 0.000000 0.000000 0.000000 -0.000000 -0.751669 92.147600 0.633815 87.965500 -1.316070 4.359480 15.735700 0.000005 -0.000001 89.180400 85.094700 -89.008600 8.984550 -0.406207 -0.000000 2.043760 -0.148817 0.345957 16.377300 -0.000001 -0.000001 4.526660 -2.780280 0.922508 6.456720 -0.000001 -0.000000 1.827580 -2.261800 0.173845 12.994200 -0.242716 4.980390 -89.964900 -0.112611 -72.679900 5.348090 -0.000007 -0.000001 -67.634900 40.581100 -13.841700 24.328600 0.000019 0.000005 0.352343 0.811729 -23.462100 22.291600 -0.000001 0.000005 5.323500 5.490670 -6.162140 12.994500 -0.242716 -4.980390 87.535800 7.536390 -71.834500 -5.348130 -0.000001 -0.000004 -64.796800 35.312200 -16.456400 -24.328900 0.000322 -0.000009 4.859680 11.566600 -22.981300 -22.291500 -0.000108 -0.000004 3.501060 5.227800 2.017570 -2.192480 -6.469440 -0.000000 -175.392000 -5.762930 -1.355620 39.081100 -0.000007 -0.000012 -0.120789 0.283607 23.069400 40.985400 -0.000006 -0.000013 -0.520916 2.319880 -67.528000 11.754300 -0.000000 0.000003 -0.000055 -0.000611 -16.601300 -2.192510 6.469440 -0.000001 179.543000 12.855800 -179.297000 -39.081100 -0.002282 -0.040193 -0.024287 0.075908 19.986700 -40.985400 0.000008 0.000006 3.814860 7.378150 -66.854400 -11.754300 -0.000006 -0.000006 -0.007958 -0.087693 -20.144000
0.000000 0.000000 0.000000 0.000000 0.000000 -0.000000 -0.731941 92.154700 0.592837 87.960300 -1.441600 4.398670 15.735700 0.000005 -0.000001 89.365700 85.096000 -89.216300 8.984550 -0.406207 -0.000000 2.041440 -0.115963 0.300523 16.377300 -0.000001 -0.000001 4.507950 -2.615540 0.749146 6.456720 -0.000001 -0.000000 1.882070 -2.031040 -0.012514 12.994200 -0.242716 4.980390 -89.963600 -0.116318 -72.599600 5.348090 -0.000007 -0.000001 -67.711600 40.453300 -13.707200 24.328600 0.000019 0.000005 0.406258 0.935385 -23.475300 22.291600 -0.000001 0.000005 5.311740 5.491700 -6.202650 12.994500 -0.242716 -4.980390 87.493500 7.575460 -71.631600 -5.348130 -0.000001 -0.000004 -63.794300 33.341000 -17.459300 -24.328900 0.000322 -0.000009 6.036990 12.197500 -26.593000 -22.291500 -0.000108 -0.000004 1.546100 5.189020 2.994400 -2.192480 -6.469440 -0.000000 -175.387000 -5.865360 -1.315550 39.081100 -0.000007 -0.000012 -0.120305 0.282799 23.045500 40.985400 -0.000006 -0.000013 -0.501858 2.341460 -67.497500 11.754300 -0.000000 0.000003 -0.000058 -0.000645 -16.602500 -2.192510 6.469440 -0.000001 179.545000 12.807000 -179.305000 -39.081100 -0.002282 -0.040193 -0.021720 0.068814 19.996300 -40.985400 0.000008 0.000006 3.905550 7.421980 -66.830400 -11.754300 -0.000006 -0.000006 -0.007997 -0.088012 -20.157000
0.000000 0.000000 0.000000 0.000000 0.000000 -0.000000 -0.696493 92.156000 0.532697 87.973100 -1.616020 4.372700 15.735700 0.000005 -0.000001 89.084200 85.129300 -88.961400 8.984550 -0.406207 -0.000000 1.974350 -0.161805 0.248262 16.377300 -0.000001 -0.000001 4.614890 -2.394270 0.526717 6.456720 -0.000001 -0.000000 1.845390 -1.657010 -0.253173 12.994200 -0.242716 4.980390 -89.960200 -0.126256 -72.509400 5.348090 -0.000007 -0.000001 -67.904400 40.173000 -13.442000 24.328600 0.000019 0.000005 0.450659 1.041320 -23.401200 22.291600 -0.000001 0.000005 5.301210 5.490360 -6.149810 12.994500 -0.242716 -4.980390 87.416400 7.685860 -71.356000 -5.348130 -0.000001 -0.000004 -62.456500 30.559700 -19.192600 -24.328900 0.000322 -0.000009 7.134780 12.070000 -30.908500 -22.291500 -0.000108 -0.000004 0.223036 5.145320 4.055520 -2.192480 -6.469440 -0.000000 -175.423000 -6.036320 -1.365650 39.081100 -0.000007 -0.000012 -0.119719 0.281178 23.063200 40.985400 -0.000006 -0.000013 -0.484254 2.287920 -67.479900 11.754300 -0.000000 0.000003 -0.000056 -0.000628 -16.601900 -2.192510 6.469440 -0.000001 179.515000 12.678500 -179.414000 -39.081100 -0.002282 -0.040193 -0.025159 0.078068 20.042400 -40.985400 0.000008 0.000006 3.776920 7.496300 -66.774300 -11.754300 -0.000006 -0.000006 -0.008063 -0.088547 -20.178800
0.000000 0.000000 0.000000 0.000000 0.000000 -0.000000 -0.658469 92.167400 0.450469 87.959100 -1.824340 4.423170 15.735700 0.000005 -0.000001 88.523300 85.143700 -88.408800 8.984550 -0.406207 -0.000000 1.943630 -0.255957 0.233120 16.377300 -0.000001 -0.000001 4.719240 -2.195050 0.297844 6.456720 -0.000001 -0.000000 1.942460 -1.256960 -0.647480 12.994200 -0.242716 4.980390 -89.965400 -0.109711 -72.495900 5.348090 -0.000007 -0.000001 -68.070400 39.967600 -13.161300 24.328600 0.000019 0.000005 0.438606 1.021900 -23.229300 22.291600 -0.000001 0.000005 5.235610 5.487770 -6.048620 12.994500 -0.242716 -4.980390 87.368600 7.743250 -71.165400 -5.348130 -0.000001 -0.000004 -60.947400 27.224600 -21.654400 -24.328900 0.000322 -0.000009 8.163640 11.505000 -35.729000 -22.291500 -0.000108 -0.000004 0.546866 5.126780 4.491840 -2.192480 -6.469440 -0.000000 -175.430000 -6.127720 -1.324390 39.081100 -0.000007 -0.000012 -0.121084 0.284781 23.034500 40.985400 -0.000006 -0.000013 -0.482161 2.178320 -67.431000 11.754300 -0.000000 0.000003 -0.000060 -0.000666 -16.603400 -2.192510 6.469440 -0.000001 179.510000 12.532900 -179.430000 -39.081100 -0.002282 -0.040193 -0.025601 0.079398 20.015300 -40.985400 0.000008 0.000006 3.710570 7.581670 -66.672000 -11.754300 -0.000006 -0.000006 -0.007699 -0.085559 -20.056900
